<svg enable-background="new 0 0 20 20" viewBox="0 0 20 20" xmlns="http://www.w3.org/2000/svg"><path d="m13.7 15.9v.8c0 .7-.6 1.3-1.3 1.3s-1.3-.6-1.3-1.3v-1.3c0-1.2-.4-2.2-1-3.1l-1.9 1.9c.2.4.3.8.3 1.2 0 1.5-1.2 2.7-2.7 2.7-.4 0-.8-.1-1.2-.3l-2 2c-.4.4-1 .4-1.3 0l-.9-.9c-.4-.4-.4-1 0-1.3l2.8-2.8c.2-1 1-1.7 2-2l2.4-2.4c-.7-.3-1.3-.4-1.9-.4h-1.4c-.7 0-1.3-.6-1.3-1.3s.6-1.3 1.3-1.3h.8l-4.8-4.9c-.4-.4-.4-1 0-1.3l.9-.9c.4-.4 1-.4 1.3 0l1.7 1.7h.1 1.3c2.9 0 5.5.9 7.7 2.4l4.2-4.2c.4-.4 1-.4 1.3 0l.9.9c.4.4.4 1 0 1.3l-4 4c2 2.5 3.3 5.6 3.3 8.9v1.3.1l.7.7c.4.4.4 1 0 1.3l-.9.9c-.4.4-1 .4-1.3 0zm-1.5-5.9 4 4c-.3-2.1-1.1-4.1-2.5-5.6zm-5.2-5.3 3 3 1.4-1.4c-1.3-.8-2.8-1.4-4.4-1.6z"/></svg>